<mxfile host="app.diagrams.net" modified="2023-01-16T13:13:08.119Z" agent="5.0 (Windows NT 10.0; Win64; x64) AppleWebKit/537.36 (KHTML, like Gecko) Chrome/108.0.0.0 Safari/537.36" etag="lb-wpe2VuMh7gNbuwMHY" version="20.8.5" type="github">
  <diagram id="C5RBs43oDa-KdzZeNtuy" name="Page-1">
    <mxGraphModel dx="756" dy="440" grid="1" gridSize="10" guides="1" tooltips="1" connect="1" arrows="1" fold="1" page="1" pageScale="1" pageWidth="827" pageHeight="1169" math="0" shadow="0">
      <root>
        <mxCell id="WIyWlLk6GJQsqaUBKTNV-0" />
        <mxCell id="WIyWlLk6GJQsqaUBKTNV-1" parent="WIyWlLk6GJQsqaUBKTNV-0" />
        <mxCell id="kNG4grC75QlbrtCjjNvb-0" value="&lt;p class=&quot;MsoNormal&quot;&gt;Librairie&amp;nbsp;&lt;/p&gt;" style="swimlane;whiteSpace=wrap;html=1;" vertex="1" parent="WIyWlLk6GJQsqaUBKTNV-1">
          <mxGeometry x="80" y="95" width="200" height="165" as="geometry" />
        </mxCell>
        <mxCell id="kNG4grC75QlbrtCjjNvb-2" value="&lt;p class=&quot;MsoNormal&quot;&gt;Nombre de livre vendu (NLV)&lt;/p&gt;" style="text;html=1;align=center;verticalAlign=middle;resizable=0;points=[];autosize=1;strokeColor=none;fillColor=none;" vertex="1" parent="kNG4grC75QlbrtCjjNvb-0">
          <mxGeometry x="3" y="40" width="180" height="50" as="geometry" />
        </mxCell>
        <mxCell id="kNG4grC75QlbrtCjjNvb-1" value="&lt;p class=&quot;MsoNormal&quot;&gt;IdLib&lt;/p&gt;" style="text;html=1;align=center;verticalAlign=middle;resizable=0;points=[];autosize=1;strokeColor=none;fillColor=none;" vertex="1" parent="WIyWlLk6GJQsqaUBKTNV-1">
          <mxGeometry x="137" y="113" width="50" height="50" as="geometry" />
        </mxCell>
        <mxCell id="kNG4grC75QlbrtCjjNvb-3" value="&lt;p class=&quot;MsoNormal&quot;&gt;Nombre de livre sur les rangs (NLR)&lt;/p&gt;" style="text;html=1;align=center;verticalAlign=middle;resizable=0;points=[];autosize=1;strokeColor=none;fillColor=none;" vertex="1" parent="WIyWlLk6GJQsqaUBKTNV-1">
          <mxGeometry x="70" y="159" width="220" height="50" as="geometry" />
        </mxCell>
        <mxCell id="kNG4grC75QlbrtCjjNvb-4" value="&lt;p class=&quot;MsoNormal&quot;&gt;Nombre de livre en stock (NLS)&lt;/p&gt;" style="text;html=1;align=center;verticalAlign=middle;resizable=0;points=[];autosize=1;strokeColor=none;fillColor=none;" vertex="1" parent="WIyWlLk6GJQsqaUBKTNV-1">
          <mxGeometry x="83" y="183" width="190" height="50" as="geometry" />
        </mxCell>
        <mxCell id="kNG4grC75QlbrtCjjNvb-5" value="&lt;p class=&quot;MsoNormal&quot;&gt;CatÃ©gorie de livre (CL)&lt;/p&gt;" style="text;html=1;align=center;verticalAlign=middle;resizable=0;points=[];autosize=1;strokeColor=none;fillColor=none;" vertex="1" parent="WIyWlLk6GJQsqaUBKTNV-1">
          <mxGeometry x="100" y="210" width="140" height="50" as="geometry" />
        </mxCell>
      </root>
    </mxGraphModel>
  </diagram>
</mxfile>
